<svg width="12" height="12" viewBox="0 0 12 12" fill="none" xmlns="http://www.w3.org/2000/svg">
<path d="M6.53561 12C3.63611 12 1.28561 9.31371 1.28561 6C1.28561 2.68629 3.63611 0 6.53561 0C9.43511 0 11.7856 2.68629 11.7856 6C11.7856 9.31371 9.43511 12 6.53561 12Z" fill="#5580ED"/>
<path d="M1.28571 6C1.28571 2.93529 3.29679 0.408857 5.89286 0.0462857C5.682 0.0169286 5.46771 0 5.25 0C2.3505 0 0 2.68629 0 6C0 9.31371 2.3505 12 5.25 12C5.46771 12 5.682 11.9831 5.89286 11.9537C3.29679 11.5911 1.28571 9.06471 1.28571 6Z" fill="#5580ED"/>
</svg>
