<svg width="16" height="16" viewBox="0 0 16 16" fill="none" xmlns="http://www.w3.org/2000/svg">
<path d="M15.7099 4.18311C14.6096 3.18311 11.9935 1.04633 9.27142 0.547852L11.5388 4.6208C11.7662 5.02809 11.5873 5.54177 11.1599 5.7211L10.6325 5.94299C10.296 6.08584 9.90496 5.97034 9.6958 5.66943L8.47418 3.89436L7.25256 5.66943C7.0434 5.97034 6.65236 6.08584 6.31588 5.94299L5.78843 5.7211C5.36102 5.54177 5.1852 5.02809 5.40952 4.6208L7.67695 0.547852C4.95482 1.04329 2.34183 3.18007 1.23843 4.18311C0.929234 4.46274 0.886794 4.93083 1.13233 5.26518C1.81438 6.20439 3.11481 8.26518 3.71804 11.0524C4.55469 14.9278 6.7827 15.5479 6.7827 15.5479V13.8548H8.47115H10.1596V15.5479C10.1596 15.5479 12.3876 14.9248 13.2243 11.0524C13.8275 8.26518 15.1279 6.20439 15.81 5.26518C16.0616 4.92779 16.0191 4.46274 15.7099 4.18311ZM6.75239 10.5722C6.36438 10.5722 6.0461 10.2561 6.0461 9.86396C6.0461 9.47186 6.36135 9.15575 6.75239 9.15575C7.1404 9.15575 7.45869 9.47186 7.45869 9.86396C7.45869 10.2561 7.1404 10.5722 6.75239 10.5722ZM8.57421 12.2469C8.1862 12.2469 7.86792 11.9308 7.86792 11.5387C7.86792 11.1466 8.18317 10.8305 8.57421 10.8305C8.96525 10.8305 9.28051 11.1466 9.28051 11.5387C9.28051 11.9308 8.96222 12.2469 8.57421 12.2469ZM8.57421 8.75758C8.1862 8.75758 7.86792 8.44147 7.86792 8.04937C7.86792 7.65727 8.18317 7.34116 8.57421 7.34116C8.96525 7.34116 9.28051 7.65727 9.28051 8.04937C9.28051 8.44147 8.96222 8.75758 8.57421 8.75758ZM10.3475 10.5722C9.95953 10.5722 9.64124 10.2561 9.64124 9.86396C9.64124 9.47186 9.95649 9.15575 10.3475 9.15575C10.7355 9.15575 11.0538 9.47186 11.0538 9.86396C11.0538 10.2561 10.7386 10.5722 10.3475 10.5722Z" fill="#5580ED"/>
</svg>
