<svg width="15" height="16" viewBox="0 0 15 16" fill="none" xmlns="http://www.w3.org/2000/svg">
<path d="M14.6591 5.05561H12.0205V0.983632L9.08864 4.11592L7.32954 0.0439453L5.57045 4.11592L2.63864 0.983632V5.05561H0L2.63864 7.87466C2.63864 7.87466 2.05227 11.3202 3.81136 11.9466C5.57045 12.5731 6.45 15.7054 6.45 15.7054H7.03636H7.62273H8.20909C8.20909 15.7054 9.08864 12.5731 10.8477 11.9466C12.6068 11.3202 12.0205 7.87466 12.0205 7.87466L14.6591 5.05561ZM6.47345 10.5371H6.27702C6.0073 10.5371 5.74343 10.4369 5.5382 10.2458C5.02514 9.77283 4.12507 8.74857 4.12507 7.40482C4.12507 7.40482 5.34177 7.77756 6.03661 8.37583C6.3122 8.61388 6.47052 8.9741 6.47052 9.35624V10.5371H6.47345ZM9.288 10.2458C9.08277 10.4369 8.82184 10.5371 8.54918 10.5371H8.35275V9.35624C8.35275 8.97723 8.51107 8.61702 8.78666 8.37583C9.4815 7.77443 10.6982 7.40482 10.6982 7.40482C10.7011 8.74857 9.80107 9.77283 9.288 10.2458Z" fill="#5580ED"/>
</svg>
