<svg width="12" height="12" viewBox="0 0 12 12" fill="none" xmlns="http://www.w3.org/2000/svg">
<path d="M6.00001 0C2.68641 0 0 2.6864 0 6C0 9.3136 2.68641 12 6.00001 12C9.31361 12 12 9.3136 12 6C12 2.6864 9.31083 0 6.00001 0ZM6.00001 9.92137C3.83257 9.92137 2.07864 8.16466 2.07864 6C2.07864 3.83256 3.83535 2.07863 6.00001 2.07863C8.16745 2.07863 9.92137 3.83534 9.92137 6C9.92137 8.16744 8.16467 9.92137 6.00001 9.92137Z" fill="#5580ED"/>
<path d="M8.75194 5.93985L5.99876 3.18668L3.24559 5.93985L5.99876 8.69303L8.75194 5.93985Z" fill="#5580ED"/>
</svg>
