<svg width="17" height="16" viewBox="0 0 17 16" fill="none" xmlns="http://www.w3.org/2000/svg">
<path d="M8.42549 10.6551C9.00073 10.6551 9.46706 9.77462 9.46706 8.68846C9.46706 7.60231 9.00073 6.7218 8.42549 6.7218C7.85024 6.7218 7.38391 7.60231 7.38391 8.68846C7.38391 9.77462 7.85024 10.6551 8.42549 10.6551Z" fill="#5580ED"/>
<path d="M11.5118 0.547852V4.38867C11.5118 4.38867 11.618 4.45719 11.7791 4.59424C10.8643 3.84389 9.69593 3.39506 8.42137 3.39506C7.27358 3.39506 6.21487 3.76509 5.34803 4.38524V0.547852C3.7514 1.07207 2.6927 2.74064 2.05884 4.15226C1.54833 5.28291 1.29822 6.51293 1.29822 7.75666V8.80509C2.11709 8.83592 3.10385 9.6685 3.24432 9.79185C3.75141 12.1902 5.87567 13.989 8.42479 13.989C10.9739 13.989 13.0982 12.1902 13.6053 9.79185C13.6053 9.7987 13.6053 9.80212 13.6018 9.80898C13.6018 9.80898 14.6845 8.83935 15.5651 8.80509V7.75666C15.5651 6.51636 15.3115 5.28634 14.8045 4.15226C14.1672 2.74064 13.1085 1.07207 11.5118 0.547852ZM8.42479 11.4981C6.87271 11.4981 5.61528 10.2407 5.61528 8.6886C5.61528 7.13651 6.87271 5.87908 8.42479 5.87908C9.97688 5.87908 11.2343 7.13651 11.2343 8.6886C11.2309 10.2407 9.97345 11.4981 8.42479 11.4981Z" fill="#5580ED"/>
<path d="M2.32642 10.6553C2.32642 10.6553 2.78211 13.0365 3.46393 13.8382C3.55644 13.9479 3.61126 14.0849 3.61126 14.2323V15.5479C3.61126 15.5479 0.722936 14.1432 0 12.6596L2.32642 10.6553Z" fill="#5580ED"/>
<path d="M14.6471 10.6553C14.6471 10.6553 14.1915 13.0365 13.5096 13.8382C13.4171 13.9513 13.3623 14.0884 13.3623 14.2323V15.5479C13.3623 15.5479 16.2506 14.1432 16.9736 12.6596L14.6471 10.6553Z" fill="#5580ED"/>
</svg>
