<svg width="21" height="21" viewBox="0 0 21 21" fill="none" xmlns="http://www.w3.org/2000/svg">
<path d="M20.652 3.39265L21 0L17.4098 0.161026L6.26907 11.9548L5.00973 10.761C4.58443 10.3556 3.9161 10.3778 3.51289 10.8054C3.10968 11.2329 3.13177 11.9048 3.55708 12.3102L5.34114 14.0037L2.01604 17.3464C1.94976 17.3408 1.88901 17.3353 1.82272 17.3353C0.817464 17.3353 0 18.1571 0 19.1676C0 20.1782 0.817464 21 1.82272 21C2.82799 21 3.64545 20.1782 3.64545 19.1676C3.64545 19.101 3.63993 19.0399 3.6344 18.9733L7.0313 15.6084L8.7767 17.2686C9.202 17.674 9.87033 17.6518 10.2735 17.2242C10.6767 16.7967 10.6547 16.1248 10.2294 15.7195L7.75487 13.3707L9.03077 14.5756L20.652 3.39265Z" fill="#222335"/>
</svg>
