<svg width="15" height="16" viewBox="0 0 15 16" fill="none" xmlns="http://www.w3.org/2000/svg">
<path d="M14.6591 5.05585H12.0205V0.983877L9.08864 4.11617L7.32954 0.0441895L5.57045 4.11617L2.63864 0.983877V5.05585H0L2.63864 7.87492C2.63864 7.87492 2.05227 11.3204 3.81136 11.9469C5.57045 12.5734 6.45 15.7056 6.45 15.7056H7.03636H7.62273H8.20909C8.20909 15.7056 9.08864 12.5734 10.8477 11.9469C12.6068 11.3204 12.0205 7.87492 12.0205 7.87492L14.6591 5.05585ZM6.47345 10.5374H6.27702C6.0073 10.5374 5.74343 10.4371 5.5382 10.2461C5.02514 9.77308 4.12507 8.74883 4.12507 7.40507C4.12507 7.40507 5.34177 7.77781 6.03661 8.37608C6.3122 8.61414 6.47052 8.97435 6.47052 9.35649V10.5374H6.47345ZM9.288 10.2461C9.08277 10.4371 8.82184 10.5374 8.54918 10.5374H8.35275V9.35649C8.35275 8.97748 8.51107 8.61727 8.78666 8.37608C9.4815 7.77468 10.6982 7.40507 10.6982 7.40507C10.7011 8.74883 9.80107 9.77308 9.288 10.2461Z" fill="#ED5565"/>
</svg>
