<svg width="17" height="15" viewBox="0 0 17 15" fill="none" xmlns="http://www.w3.org/2000/svg">
<path d="M8.42549 10.1073C9.00073 10.1073 9.46706 9.22677 9.46706 8.14061C9.46706 7.05445 9.00073 6.17395 8.42549 6.17395C7.85024 6.17395 7.38391 7.05445 7.38391 8.14061C7.38391 9.22677 7.85024 10.1073 8.42549 10.1073Z" fill="#ED5565"/>
<path d="M11.5118 0V3.84081C11.5118 3.84081 11.618 3.90934 11.7791 4.04639C10.8643 3.29604 9.69593 2.84721 8.42137 2.84721C7.27358 2.84721 6.21487 3.21724 5.34803 3.83739V0C3.7514 0.524215 2.6927 2.19279 2.05884 3.6044C1.54833 4.73506 1.29822 5.96508 1.29822 7.20881V8.25724C2.11709 8.28807 3.10385 9.12065 3.24432 9.24399C3.75141 11.6424 5.87567 13.4411 8.42479 13.4411C10.9739 13.4411 13.0982 11.6424 13.6053 9.24399C13.6053 9.25085 13.6053 9.25427 13.6018 9.26112C13.6018 9.26112 14.6845 8.2915 15.5651 8.25724V7.20881C15.5651 5.96851 15.3115 4.73849 14.8045 3.6044C14.1672 2.19279 13.1085 0.524215 11.5118 0ZM8.42479 10.9503C6.87271 10.9503 5.61528 9.69283 5.61528 8.14075C5.61528 6.58866 6.87271 5.33123 8.42479 5.33123C9.97688 5.33123 11.2343 6.58866 11.2343 8.14075C11.2309 9.69283 9.97345 10.9503 8.42479 10.9503Z" fill="#ED5565"/>
<path d="M2.32642 10.1074C2.32642 10.1074 2.78211 12.4887 3.46393 13.2904C3.55644 13.4 3.61126 13.5371 3.61126 13.6844V15.0001C3.61126 15.0001 0.722936 13.5953 0 12.1118L2.32642 10.1074Z" fill="#ED5565"/>
<path d="M14.6471 10.1074C14.6471 10.1074 14.1915 12.4887 13.5096 13.2904C13.4171 13.4035 13.3623 13.5405 13.3623 13.6844V15.0001C13.3623 15.0001 16.2506 13.5953 16.9736 12.1118L14.6471 10.1074Z" fill="#ED5565"/>
</svg>
