<?xml version="1.0" encoding="UTF-8"?>
<svg width="16px" height="16px" viewBox="0 0 11 9" version="1.1" xmlns="http://www.w3.org/2000/svg" xmlns:xlink="http://www.w3.org/1999/xlink">
    <!-- Generator: Sketch 52.5 (67469) - http://www.bohemiancoding.com/sketch -->
    <title>Untitled 3</title>
    <desc>Created with Sketch.</desc>
    <g id="Page-1" stroke="none" stroke-width="1" fill="none" fill-rule="evenodd">
        <g id="blue-baron" fill="#DD6068" fill-rule="nonzero">
            <path d="M7.98884087,0.745645085 L2.97159396,0.745645085 C2.17666384,2.05090584 0.11481,2.26518 0.71804,5.0524 C1.55469,8.9278 3.7827,8.48293471 3.7827,8.48293471 L3.7827,7.8548 L5.47115,7.8548 L7.1596,7.8548 L7.1596,8.48293471 C7.1596,8.48293471 9.3876,8.9248 10.2243,5.0524 C10.8275,2.26518 7.76452087,1.15293509 7.98884087,0.745645085 Z M3.75239,4.5722 C3.36438,4.5722 3.0461,4.2561 3.0461,3.86396 C3.0461,3.47186 3.36135,3.15575 3.75239,3.15575 C4.1404,3.15575 4.45869,3.47186 4.45869,3.86396 C4.45869,4.2561 4.1404,4.5722 3.75239,4.5722 Z M7.3475,4.5722 C6.95953,4.5722 6.64124,4.2561 6.64124,3.86396 C6.64124,3.47186 6.95649,3.15575 7.3475,3.15575 C7.7355,3.15575 8.0538,3.47186 8.0538,3.86396 C8.0538,4.2561 7.7386,4.5722 7.3475,4.5722 Z" id="Shape"></path>
        </g>
    </g>
</svg>