<svg width="15" height="16" viewBox="0 0 15 16" fill="none" xmlns="http://www.w3.org/2000/svg">
<path d="M14.7363 4.27124C13.6359 3.27124 11.0199 1.13447 8.29778 0.635986L10.5652 4.70893C10.7926 5.11623 10.6137 5.62991 10.1863 5.80924L9.65885 6.03112C9.32237 6.17398 8.93133 6.05848 8.72217 5.75757L7.50055 3.98249L6.27893 5.75757C6.06976 6.05848 5.67873 6.17398 5.34225 6.03112L4.8148 5.80924C4.38738 5.62991 4.21157 5.11623 4.43588 4.70893L6.70331 0.635986C3.98119 1.13143 1.36819 3.26821 0.264795 4.27124C-0.0443988 4.55088 -0.0868391 5.01896 0.158698 5.35331C0.840744 6.29252 2.14118 8.35331 2.74441 11.1405C3.58105 15.0159 5.80907 15.636 5.80907 15.636V13.943H7.49752H9.18596V15.636C9.18596 15.636 11.414 15.0129 12.2506 11.1405C12.8539 8.35331 14.1543 6.29252 14.8363 5.35331C15.0879 5.01592 15.0455 4.55088 14.7363 4.27124ZM5.77876 10.6603C5.39075 10.6603 5.07246 10.3442 5.07246 9.9521C5.07246 9.56 5.38772 9.24389 5.77876 9.24389C6.16677 9.24389 6.48506 9.56 6.48506 9.9521C6.48506 10.3442 6.16677 10.6603 5.77876 10.6603ZM7.60058 12.3351C7.21257 12.3351 6.89428 12.019 6.89428 11.6269C6.89428 11.2348 7.20954 10.9187 7.60058 10.9187C7.99162 10.9187 8.30688 11.2348 8.30688 11.6269C8.30688 12.019 7.98859 12.3351 7.60058 12.3351ZM7.60058 8.84571C7.21257 8.84571 6.89428 8.5296 6.89428 8.13751C6.89428 7.74541 7.20954 7.4293 7.60058 7.4293C7.99162 7.4293 8.30688 7.74541 8.30688 8.13751C8.30688 8.5296 7.98859 8.84571 7.60058 8.84571ZM9.3739 10.6603C8.98589 10.6603 8.6676 10.3442 8.6676 9.9521C8.6676 9.56 8.98286 9.24389 9.3739 9.24389C9.76191 9.24389 10.0802 9.56 10.0802 9.9521C10.0802 10.3442 9.76494 10.6603 9.3739 10.6603Z" fill="#ED5565"/>
</svg>
