<svg width="12" height="13" viewBox="0 0 12 13" fill="none" xmlns="http://www.w3.org/2000/svg">
<path d="M6.65443 12.2181C3.70222 12.2181 1.30899 9.48303 1.30899 6.10907C1.30899 2.73512 3.70222 0 6.65443 0C9.60664 0 11.9999 2.73512 11.9999 6.10907C11.9999 9.48303 9.60664 12.2181 6.65443 12.2181Z" fill="#ED5565"/>
<path d="M1.30909 6.10907C1.30909 2.98865 3.35672 0.41629 5.99998 0.0471271C5.78529 0.0172363 5.56711 0 5.34544 0C2.39323 0 0 2.73512 0 6.10907C0 9.48303 2.39323 12.2181 5.34544 12.2181C5.56711 12.2181 5.78529 12.2009 5.99998 12.171C3.35672 11.8019 1.30909 9.2295 1.30909 6.10907Z" fill="#ED5565"/>
</svg>
