<svg width="13" height="13" viewBox="0 0 13 13" fill="none" xmlns="http://www.w3.org/2000/svg">
<path d="M6.41572 0C2.87254 0 0 2.87253 0 6.41571C0 9.9589 2.87254 12.8314 6.41572 12.8314C9.9589 12.8314 12.8314 9.9589 12.8314 6.41571C12.8314 2.87253 9.95594 0 6.41572 0ZM6.41572 10.6088C4.09811 10.6088 2.22266 8.73036 2.22266 6.41571C2.22266 4.0981 4.10108 2.22265 6.41572 2.22265C8.73333 2.22265 10.6088 4.10107 10.6088 6.41571C10.6088 8.73332 8.73036 10.6088 6.41572 10.6088Z" fill="#ED5565"/>
<path d="M9.35833 6.35137L6.4144 3.40744L3.47047 6.35137L6.4144 9.2953L9.35833 6.35137Z" fill="#ED5565"/>
</svg>
